<svg xmlns="http://www.w3.org/2000/svg" width="19" height="18" fill="none"><path fill="#6C727F" d="m16.71 3.938-6.75 6.187-6.75-6.188h13.5Z" opacity=".2"/><path fill="#6C727F" fill-rule="evenodd" d="M2.796 3.557a.563.563 0 0 1 .795-.034l6.37 5.839 6.37-5.84a.563.563 0 0 1 .76.83l-6.75 6.188a.563.563 0 0 1-.76 0L2.83 4.352a.562.562 0 0 1-.035-.795Z" clip-rule="evenodd"/><path fill="#6C727F" fill-rule="evenodd" d="M2.648 3.938c0-.311.252-.563.563-.563h13.5c.31 0 .562.252.562.563V13.5a1.125 1.125 0 0 1-1.125 1.125H3.773A1.125 1.125 0 0 1 2.648 13.5V3.937Zm1.125.562v9h12.375v-9H3.773Z" clip-rule="evenodd"/><path fill="#6C727F" fill-rule="evenodd" d="M9.145 8.62a.562.562 0 0 1-.034.795l-5.344 4.9a.563.563 0 1 1-.76-.829l5.343-4.9a.562.562 0 0 1 .795.034ZM10.777 8.62a.562.562 0 0 1 .795-.035l5.343 4.901a.563.563 0 0 1-.76.83l-5.344-4.901a.563.563 0 0 1-.034-.795Z" clip-rule="evenodd"/></svg>