<svg xmlns="http://www.w3.org/2000/svg" width="19" height="18" fill="none"><path fill="#6C727F" d="M9.96 3.938C4.337 3.938 2.087 9 2.087 9s2.25 5.063 7.875 5.063S17.836 9 17.836 9s-2.25-5.063-7.875-5.063Zm0 7.874a2.812 2.812 0 1 1 0-5.624 2.812 2.812 0 0 1 0 5.625Z" opacity=".2"/><path fill="#6C727F" fill-rule="evenodd" d="M3.516 6.071c1.341-1.34 3.445-2.696 6.445-2.696 3 0 5.104 1.355 6.445 2.696a10.642 10.642 0 0 1 1.466 1.838 8.993 8.993 0 0 1 .444.79l.024.05.007.015.002.005v.002L17.837 9l.514.229-.001.002-.002.005-.007.015-.024.05a8.989 8.989 0 0 1-.444.79 10.64 10.64 0 0 1-1.466 1.838c-1.341 1.34-3.445 2.696-6.445 2.696-3 0-5.104-1.355-6.445-2.696a10.641 10.641 0 0 1-1.467-1.838 8.973 8.973 0 0 1-.467-.84l-.007-.015-.002-.005V9.23L2.085 9a52.847 52.847 0 0 1-.514-.229l.001-.002.002-.005.007-.015a3.517 3.517 0 0 1 .113-.228c.079-.15.196-.36.354-.612.316-.501.798-1.17 1.467-1.838ZM2.086 9l-.514-.228a.562.562 0 0 0 0 .456L2.086 9Zm.629 0c.066.124.161.292.286.491a9.517 9.517 0 0 0 1.31 1.643c1.191 1.19 3.025 2.366 5.65 2.366 2.625 0 4.459-1.176 5.65-2.367a9.52 9.52 0 0 0 1.31-1.642A8.02 8.02 0 0 0 17.207 9a8.02 8.02 0 0 0-.287-.491 9.52 9.52 0 0 0-1.31-1.643C14.42 5.677 12.586 4.5 9.96 4.5c-2.624 0-4.458 1.176-5.648 2.367a9.517 9.517 0 0 0-1.31 1.642c-.126.199-.22.367-.287.491Zm15.12 0 .515.228a.563.563 0 0 0 0-.456L17.836 9Z" clip-rule="evenodd"/><path fill="#6C727F" fill-rule="evenodd" d="M9.96 6.75a2.25 2.25 0 1 0 0 4.5 2.25 2.25 0 0 0 0-4.5ZM6.587 9a3.375 3.375 0 1 1 6.75 0 3.375 3.375 0 0 1-6.75 0Z" clip-rule="evenodd"/></svg>