<svg width="264" height="35" viewBox="0 0 264 35" fill="none" xmlns="http://www.w3.org/2000/svg">
<path d="M54.817 28.6947V26.5096C56.0656 28.601 58.438 29.0693 59.7802 29.0693C63.7758 29.0693 67.1782 25.6668 67.1782 20.6724C67.1782 15.8964 64.1191 12.2442 59.6241 12.2442C58.0946 12.2442 56.3465 12.7749 55.254 14.4293V6.37577H49.8225V28.6947H54.817ZM55.1291 20.6099C55.1291 18.3624 56.565 16.989 58.4692 16.989C60.2484 16.989 61.7156 18.3624 61.7156 20.6099C61.7156 22.8574 60.2484 24.3245 58.4692 24.3245C56.565 24.3245 55.1291 22.8886 55.1291 20.6099Z" fill="#170F49"/>
<path d="M80.8366 12.3691C80.5869 12.2755 80.2435 12.2442 79.8377 12.2442C77.7151 12.2442 76.1543 13.3992 75.3115 15.3658V12.6188H69.9113V28.6947H75.3427V22.795C75.3427 19.4238 76.8723 17.3323 79.6192 17.3323C80.1811 17.3323 80.5869 17.3948 80.8366 17.5196V12.3691Z" fill="#170F49"/>
<path d="M82.9278 28.6947H88.3592V12.6188H82.9278V28.6947ZM82.7093 8.12383C82.7093 9.74702 83.9579 10.9332 85.6123 10.9332C87.2667 10.9332 88.5465 9.74702 88.5465 8.12383C88.5465 6.50063 87.2667 5.31445 85.6123 5.31445C83.9579 5.31445 82.7093 6.50063 82.7093 8.12383Z" fill="#170F49"/>
<path d="M95.8136 20.7348L90.2885 28.6947H96.313L98.9351 24.4494L101.557 28.6947H107.582L102.057 20.7348L107.707 12.6188H101.526L98.9351 17.0826L96.3442 12.6188H90.1636L95.8136 20.7348Z" fill="#170F49"/>
<path d="M113.964 15.7716H116.025V22.2019C116.025 25.9477 118.147 28.008 121.643 28.008C123.235 28.008 124.453 27.6646 125.295 27.2588V22.6701C124.64 23.1384 123.86 23.2632 123.204 23.2632C122.205 23.2632 121.456 22.6701 121.456 21.2967V15.7716H124.858V11.5575H121.456V7.21858H116.181V11.5575H113.964V15.7716Z" fill="#4A3AFF"/>
<path d="M141.993 20.8909C142.15 20.3914 142.306 19.4238 142.306 18.5809C142.306 14.1796 139.184 11.1829 134.595 11.1829C129.851 11.1829 126.23 14.8663 126.23 19.611C126.23 24.3558 129.757 28.008 135.251 28.008C137.967 28.008 140.089 27.3212 142.212 25.4171L139.465 21.9834C138.685 22.7326 137.405 23.4817 135.657 23.4817C133.815 23.4817 132.067 22.7014 131.817 20.8909H141.993ZM134.471 15.4906C135.875 15.4906 136.968 16.3647 137.061 17.7381V17.7693H131.724C131.817 16.3022 133.066 15.4906 134.471 15.4906Z" fill="#4A3AFF"/>
<path d="M144.975 11.5575V27.6334H150.407V19.174C150.407 17.1763 151.437 15.9276 152.966 15.9276C154.59 15.9276 155.464 16.9265 155.464 18.7994V27.6334H160.895V19.174C160.895 17.1763 161.988 15.9276 163.455 15.9276C165.078 15.9276 165.952 16.9265 165.952 18.7994V27.6334H171.383V17.8318C171.383 13.6801 169.073 11.1829 165.172 11.1829C162.456 11.1829 160.989 12.4003 159.896 13.805C158.804 12.0882 157.056 11.1829 154.683 11.1829C152.779 11.1829 151.249 11.8384 150.157 13.4616V11.5575H144.975Z" fill="#4A3AFF"/>
<path d="M175.063 33.8764H180.494V26.0726C181.524 27.5709 183.335 28.008 184.864 28.008C189.359 28.008 192.418 24.3558 192.418 19.5798C192.418 14.5854 188.922 11.1829 184.927 11.1829C183.616 11.1829 181.399 11.6512 180.057 13.7426V11.5575H175.063V33.8764ZM180.369 19.6423C180.369 17.3635 181.805 15.9276 183.709 15.9276C185.488 15.9276 186.956 17.3948 186.956 19.6423C186.956 21.8898 185.488 23.2632 183.709 23.2632C181.805 23.2632 180.369 21.8898 180.369 19.6423Z" fill="#4A3AFF"/>
<path d="M194.964 22.8262C194.964 26.1975 196.899 28.008 200.271 28.008C201.363 28.008 202.206 27.8207 202.799 27.5397V23.1696C202.393 23.3257 202.019 23.3569 201.738 23.3569C200.489 23.3569 200.395 22.5765 200.395 21.8273V5.31445H194.964V22.8262Z" fill="#4A3AFF"/>
<path d="M209.514 28.008C211.637 28.008 213.042 27.0715 213.666 25.8541V27.6334H218.692V17.5821C218.692 13.5865 215.945 11.1829 211.294 11.1829C208.141 11.1829 205.55 12.5564 204.176 14.3045L207.017 17.7069C207.86 16.7392 209.171 15.8028 211.013 15.8028C212.355 15.8028 213.51 16.271 213.51 17.6133V17.6445L209.358 18.4561C205.987 19.174 204.114 20.7972 204.114 23.1696C204.114 26.0102 206.393 28.008 209.514 28.008ZM213.51 20.9221V21.1718C213.51 22.9511 212.511 24.106 210.794 24.106C209.826 24.106 209.296 23.6066 209.296 22.8262C209.296 22.0458 209.92 21.64 210.888 21.4215L213.51 20.9221Z" fill="#4A3AFF"/>
<path d="M220.627 15.7716H222.687V22.2019C222.687 25.9477 224.809 28.008 228.306 28.008C229.898 28.008 231.115 27.6646 231.958 27.2588V22.6701C231.302 23.1384 230.522 23.2632 229.866 23.2632C228.867 23.2632 228.118 22.6701 228.118 21.2967V15.7716H231.521V11.5575H228.118V7.21858H222.843V11.5575H220.627V15.7716Z" fill="#4A3AFF"/>
<path d="M248.656 20.8909C248.812 20.3914 248.968 19.4238 248.968 18.5809C248.968 14.1796 245.846 11.1829 241.258 11.1829C236.513 11.1829 232.892 14.8663 232.892 19.611C232.892 24.3558 236.419 28.008 241.913 28.008C244.629 28.008 246.752 27.3212 248.874 25.4171L246.127 21.9834C245.347 22.7326 244.067 23.4817 242.319 23.4817C240.477 23.4817 238.729 22.7014 238.48 20.8909H248.656ZM241.133 15.4906C242.538 15.4906 243.63 16.3647 243.724 17.7381V17.7693H238.386C238.48 16.3022 239.728 15.4906 241.133 15.4906Z" fill="#4A3AFF"/>
<path d="M257.194 28.008C261.189 28.008 263.874 25.7917 263.874 22.9199C263.874 19.7359 261.408 18.8931 258.879 17.8942C256.601 16.9265 255.633 16.7705 255.633 16.1774C255.633 15.5843 256.351 15.2409 257.194 15.2409C258.692 15.2409 259.535 15.9589 260.066 16.8641L263.437 14.4293C262.438 12.5252 260.097 11.1829 257.35 11.1829C253.729 11.1829 250.701 12.931 250.701 16.1462C250.701 18.737 252.48 20.0168 255.633 21.1406C257.849 21.921 258.942 22.2019 258.942 23.0447C258.942 23.6378 258.349 23.95 257.256 23.95C255.633 23.95 254.384 22.9511 253.635 21.6713L250.17 24.3246C251.513 26.6969 254.197 28.008 257.194 28.008Z" fill="#4A3AFF"/>
<path fill-rule="evenodd" clip-rule="evenodd" d="M30.8052 10.2276C33.6044 10.2276 35.8736 7.95843 35.8736 5.15923C35.8736 2.36002 33.6044 0.0908203 30.8052 0.0908203C28.006 0.0908203 25.7368 2.36002 25.7368 5.15923C25.7368 7.95843 28.006 10.2276 30.8052 10.2276Z" fill="#8055FA"/>
<path fill-rule="evenodd" clip-rule="evenodd" d="M30.8051 22.3884C33.6043 22.3884 35.8735 20.1195 35.8735 17.3207C35.8735 14.5218 33.6043 12.2529 30.8051 12.2529C28.0059 12.2529 25.7366 14.5218 25.7366 17.3207C25.7366 20.1195 28.0059 22.3884 30.8051 22.3884Z" fill="#7550FB"/>
<path fill-rule="evenodd" clip-rule="evenodd" d="M30.8051 35.003C33.6043 35.003 35.8735 32.7338 35.8735 29.9346C35.8735 27.1354 33.6043 24.8662 30.8051 24.8662C28.0059 24.8662 25.7366 27.1354 25.7366 29.9346C25.7366 32.7338 28.0059 35.003 30.8051 35.003Z" fill="#6A4AFC"/>
<path d="M18.1915 22.3884C20.9904 22.3884 23.2593 20.1195 23.2593 17.3207C23.2593 14.5218 20.9904 12.2529 18.1915 12.2529C15.3927 12.2529 13.1238 14.5218 13.1238 17.3207C13.1238 20.1195 15.3927 22.3884 18.1915 22.3884Z" fill="#6045FD"/>
<path d="M18.1915 22.3884C20.9904 22.3884 23.2593 20.1195 23.2593 17.3207C23.2593 14.5218 20.9904 12.2529 18.1915 12.2529C15.3927 12.2529 13.1238 14.5218 13.1238 17.3207C13.1238 20.1195 15.3927 22.3884 18.1915 22.3884Z" stroke="#A0A3BD"/>
<path fill-rule="evenodd" clip-rule="evenodd" d="M18.1909 35.003C20.9897 35.003 23.2586 32.7338 23.2586 29.9346C23.2586 27.1354 20.9897 24.8662 18.1909 24.8662C15.3921 24.8662 13.1232 27.1354 13.1232 29.9346C13.1232 32.7338 15.3921 35.003 18.1909 35.003Z" fill="#553FFE"/>
<path fill-rule="evenodd" clip-rule="evenodd" d="M6.02934 35.003C8.82855 35.003 11.0977 32.7338 11.0977 29.9346C11.0977 27.1354 8.82855 24.8662 6.02934 24.8662C3.23014 24.8662 0.960938 27.1354 0.960938 29.9346C0.960938 32.7338 3.23014 35.003 6.02934 35.003Z" fill="#4A3AFF"/>
</svg>
