<svg xmlns="http://www.w3.org/2000/svg" width="305" height="42" fill="none"><path fill="#170F49" d="M62.667 33.798v-2.53c1.446 2.421 4.193 2.963 5.748 2.963 4.627 0 8.567-3.94 8.567-9.724 0-5.53-3.542-9.76-8.748-9.76-1.771 0-3.795.615-5.06 2.53V7.952h-6.29v25.847h5.783Zm.362-9.363c0-2.603 1.663-4.193 3.868-4.193 2.06 0 3.76 1.59 3.76 4.193 0 2.603-1.7 4.302-3.76 4.302-2.206 0-3.868-1.663-3.868-4.302ZM92.8 14.892c-.29-.109-.688-.145-1.157-.145-2.459 0-4.266 1.338-5.242 3.615v-3.181h-6.254v18.617h6.29v-6.833c0-3.904 1.771-6.326 4.953-6.326.65 0 1.12.073 1.41.217v-5.964ZM95.221 33.798h6.29V15.18h-6.29v18.617Zm-.253-23.823c0 1.88 1.446 3.254 3.362 3.254 1.916 0 3.398-1.374 3.398-3.254s-1.482-3.253-3.398-3.253c-1.916 0-3.362 1.374-3.362 3.253ZM110.144 24.58l-6.399 9.218h6.977l3.036-4.917 3.037 4.917h6.977l-6.399-9.218 6.543-9.4h-7.157l-3.001 5.17-3-5.17h-7.157l6.543 9.4Z"/><path fill="#4A3AFF" d="M131.163 18.832h2.386v7.447c0 4.338 2.458 6.723 6.507 6.723 1.843 0 3.253-.397 4.229-.867V26.82c-.759.542-1.663.687-2.422.687-1.157 0-2.024-.687-2.024-2.278v-6.398h3.94v-4.88h-3.94V8.927h-6.109v5.025h-2.567v4.88ZM163.622 24.76c.181-.578.362-1.699.362-2.675 0-5.097-3.615-8.567-8.929-8.567-5.495 0-9.688 4.266-9.688 9.76 0 5.495 4.085 9.724 10.447 9.724 3.145 0 5.603-.795 8.061-3l-3.181-3.976c-.903.867-2.386 1.735-4.41 1.735-2.133 0-4.157-.904-4.446-3h11.784Zm-8.712-6.253c1.627 0 2.892 1.012 3.001 2.602v.036h-6.182c.109-1.698 1.555-2.638 3.181-2.638ZM167.075 13.952v18.617h6.29v-9.797c0-2.313 1.193-3.76 2.965-3.76 1.879 0 2.892 1.157 2.892 3.326v10.23h6.289v-9.796c0-2.313 1.266-3.76 2.965-3.76 1.879 0 2.892 1.157 2.892 3.326v10.23h6.29v-11.35c0-4.808-2.675-7.7-7.194-7.7-3.145 0-4.844 1.41-6.109 3.037-1.266-1.989-3.29-3.037-6.037-3.037-2.205 0-3.977.76-5.242 2.639v-2.205h-6.001ZM201.918 39.798h6.29v-9.037c1.193 1.735 3.29 2.241 5.061 2.241 5.206 0 8.748-4.229 8.748-9.76 0-5.784-4.049-9.724-8.676-9.724-1.518 0-4.084.542-5.639 2.964v-2.53h-5.784v25.846Zm6.146-16.484c0-2.638 1.663-4.301 3.868-4.301 2.06 0 3.759 1.699 3.759 4.301 0 2.603-1.699 4.194-3.759 4.194-2.205 0-3.868-1.59-3.868-4.194ZM224.965 27.002c0 3.904 2.242 6 6.146 6 1.265 0 2.241-.217 2.928-.542V27.4a3.39 3.39 0 0 1-1.229.216c-1.446 0-1.555-.904-1.555-1.771V6.722h-6.29v20.28ZM241.815 33.002c2.458 0 4.085-1.084 4.808-2.494v2.06h5.82v-11.64c0-4.627-3.181-7.41-8.567-7.41-3.651 0-6.652 1.59-8.242 3.615l3.289 3.94c.976-1.12 2.495-2.205 4.627-2.205 1.555 0 2.892.542 2.892 2.097V21l-4.807.94c-3.905.831-6.074 2.711-6.074 5.458 0 3.29 2.639 5.603 6.254 5.603Zm4.627-8.205v.289c0 2.06-1.156 3.398-3.145 3.398-1.12 0-1.735-.579-1.735-1.482 0-.904.723-1.374 1.844-1.627l3.036-.578ZM254.684 18.832h2.386v7.447c0 4.338 2.458 6.723 6.507 6.723 1.843 0 3.253-.397 4.229-.867V26.82c-.759.542-1.663.687-2.422.687-1.157 0-2.024-.687-2.024-2.278v-6.398h3.94v-4.88h-3.94V8.927h-6.109v5.025h-2.567v4.88ZM287.143 24.76c.181-.578.362-1.699.362-2.675 0-5.097-3.615-8.567-8.929-8.567-5.495 0-9.688 4.266-9.688 9.76 0 5.495 4.085 9.724 10.447 9.724 3.145 0 5.603-.795 8.061-3l-3.181-3.976c-.903.867-2.386 1.735-4.41 1.735-2.133 0-4.157-.904-4.446-3h11.784Zm-8.712-6.253c1.627 0 2.892 1.012 3.001 2.602v.036h-6.182c.109-1.698 1.555-2.638 3.181-2.638ZM297.031 33.002c4.627 0 7.736-2.566 7.736-5.892 0-3.687-2.856-4.663-5.784-5.82-2.639-1.12-3.76-1.301-3.76-1.988s.832-1.085 1.808-1.085c1.735 0 2.711.832 3.326 1.88l3.904-2.82c-1.157-2.205-3.868-3.759-7.049-3.759-4.194 0-7.7 2.024-7.7 5.748 0 3 2.06 4.482 5.711 5.784 2.567.903 3.832 1.229 3.832 2.205 0 .687-.687 1.048-1.952 1.048-1.88 0-3.325-1.157-4.193-2.639l-4.013 3.073c1.555 2.747 4.664 4.265 8.134 4.265Z"/><path fill="#8055FA" fill-rule="evenodd" d="M34.86 12.412a5.87 5.87 0 1 0 0-11.74 5.87 5.87 0 0 0 0 11.74Z" clip-rule="evenodd"/><path fill="#7550FB" fill-rule="evenodd" d="M34.86 26.494a5.87 5.87 0 1 0 0-11.738 5.87 5.87 0 0 0 0 11.738Z" clip-rule="evenodd"/><path fill="#6A4AFC" fill-rule="evenodd" d="M34.86 41.102a5.87 5.87 0 1 0 0-11.738 5.87 5.87 0 0 0 0 11.738Z" clip-rule="evenodd"/><path fill="#6045FD" d="M20.253 26.494a5.869 5.869 0 1 0 0-11.737 5.869 5.869 0 0 0 0 11.737Z"/><path stroke="#A0A3BD" d="M20.253 26.494a5.869 5.869 0 1 0 0-11.737 5.869 5.869 0 0 0 0 11.737Z"/><path fill="#553FFE" fill-rule="evenodd" d="M20.252 41.102a5.87 5.87 0 1 0 0-11.738 5.87 5.87 0 0 0 0 11.738Z" clip-rule="evenodd"/><path fill="#4A3AFF" fill-rule="evenodd" d="M6.168 41.102a5.87 5.87 0 1 0 0-11.739 5.87 5.87 0 0 0 0 11.74Z" clip-rule="evenodd"/></svg>